<mxfile host="app.diagrams.net" modified="2024-03-29T02:32:34.887Z" agent="Mozilla/5.0 (Windows NT 10.0; Win64; x64) AppleWebKit/537.36 (KHTML, like Gecko) Chrome/123.0.0.0 Safari/537.36" version="24.2.0" etag="cI74_kV4_44bYniV7iXG" type="github">
  <diagram name="第 1 页" id="Sqdw41zdQ13881j1d5oV">
    <mxGraphModel>
      <root>
        <mxCell id="0" />
        <mxCell id="1" parent="0" />
      </root>
    </mxGraphModel>
  </diagram>
</mxfile>
